<svg width="375" height="14" viewBox="0 0 375 14" fill="none" xmlns="http://www.w3.org/2000/svg">
<rect x="106" y="4" width="160" height="6" rx="3" fill="#CFCFCF"/>
<path d="M106 7C106 5.34315 107.343 4 109 4H147.5C149.157 4 150.5 5.34315 150.5 7C150.5 8.65685 149.157 10 147.5 10H109C107.343 10 106 8.65685 106 7Z" fill="#20AEE5"/>
<path d="M144.5 7C144.5 5.34315 145.843 4 147.5 4H186C187.657 4 189 5.34315 189 7C189 8.65685 187.657 10 186 10H147.5C145.843 10 144.5 8.65685 144.5 7Z" fill="#20AEE5"/>
<path d="M183 7C183 5.34315 184.343 4 186 4H224.5C226.157 4 227.5 5.34315 227.5 7C227.5 8.65685 226.157 10 224.5 10H186C184.343 10 183 8.65685 183 7Z" fill="#20AEE5"/>
<path d="M277.484 6.10156H277.977C278.336 6.10156 278.68 6.0625 279 5.99219C279.32 5.91406 279.594 5.79688 279.836 5.63281C280.078 5.46875 280.266 5.25 280.406 4.98438C280.539 4.71875 280.609 4.39844 280.609 4.02344C280.609 3.70312 280.555 3.41406 280.438 3.15625C280.32 2.89062 280.156 2.67188 279.945 2.48438C279.742 2.29688 279.5 2.15625 279.227 2.05469C278.961 1.95312 278.672 1.89844 278.375 1.89844C277.898 1.89844 277.477 2.00781 277.102 2.23438C276.734 2.46094 276.445 2.78906 276.219 3.22656L275.242 2.71094C275.594 2.10938 276.047 1.65625 276.586 1.36719C277.133 1.07031 277.75 0.929688 278.438 0.929688C278.883 0.929688 279.312 0.992188 279.711 1.125C280.109 1.25781 280.461 1.45312 280.766 1.71094C281.07 1.96094 281.312 2.28125 281.492 2.65625C281.664 3.03906 281.758 3.46875 281.758 3.96094C281.758 4.63281 281.57 5.19531 281.195 5.64062C280.828 6.09375 280.359 6.39844 279.789 6.54688V6.57812C280.445 6.71875 280.984 7.03125 281.414 7.51562C281.852 8 282.062 8.625 282.062 9.39062C282.062 9.92969 281.969 10.4141 281.773 10.8359C281.57 11.25 281.312 11.6094 280.984 11.9062C280.648 12.1953 280.266 12.4219 279.828 12.5703C279.383 12.7266 278.914 12.8047 278.43 12.8047C277.594 12.8047 276.875 12.6094 276.258 12.2109C275.641 11.8125 275.172 11.2422 274.852 10.4922L275.938 10.0938C276.125 10.6406 276.445 11.0625 276.898 11.3672C277.344 11.6641 277.852 11.8203 278.43 11.8203C278.75 11.8203 279.055 11.7656 279.359 11.6484C279.664 11.5391 279.93 11.3828 280.164 11.1719C280.391 10.9609 280.57 10.7109 280.711 10.4141C280.852 10.1172 280.922 9.77344 280.922 9.39062C280.922 8.96094 280.836 8.60156 280.672 8.3125C280.5 8.01562 280.281 7.78125 280.008 7.60156C279.727 7.41406 279.414 7.28906 279.062 7.21094C278.711 7.125 278.352 7.08594 277.977 7.08594H277.484V6.10156Z" fill="#20AEE5"/>
<path d="M286.035 12.3711L285.338 12.1484L288.977 3.44727L289.662 3.6875L286.035 12.3711Z" fill="#999999"/>
<path d="M295.234 9.19922H296.482V9.95508H295.234V12H294.396V9.95508H290.518V9.11719L294.109 3.51562H295.234V9.19922ZM294.396 4.48828H294.373L291.414 9.19922H294.396V4.48828Z" fill="#999999"/>
</svg>
